<?xml version="1.0" encoding="UTF-8" standalone="no"?>
<svg
   width="30"
   height="30"
   viewBox="0 0 30 30"
   fill="none"
   version="1.1"
   id="svg1"
   sodipodi:docname="pokeball-light.svg"
   inkscape:version="1.4 (86a8ad7, 2024-10-11)"
   xmlns:inkscape="http://www.inkscape.org/namespaces/inkscape"
   xmlns:sodipodi="http://sodipodi.sourceforge.net/DTD/sodipodi-0.dtd"
   xmlns="http://www.w3.org/2000/svg"
   xmlns:svg="http://www.w3.org/2000/svg">
  <defs
     id="defs1" />
  <sodipodi:namedview
     id="namedview1"
     pagecolor="#505050"
     bordercolor="#eeeeee"
     borderopacity="1"
     inkscape:showpageshadow="0"
     inkscape:pageopacity="0"
     inkscape:pagecheckerboard="0"
     inkscape:deskcolor="#505050"
     inkscape:zoom="22.509566"
     inkscape:cx="10.684346"
     inkscape:cy="16.859499"
     inkscape:window-width="1920"
     inkscape:window-height="1177"
     inkscape:window-x="-8"
     inkscape:window-y="-8"
     inkscape:window-maximized="1"
     inkscape:current-layer="svg1" />
  <path
     d="M18.5417 15C18.5417 15.9393 18.1686 16.8401 17.5044 17.5043C16.8402 18.1685 15.9394 18.5417 15 18.5417C14.0607 18.5417 13.1599 18.1685 12.4957 17.5043C11.8315 16.8401 11.4584 15.9393 11.4584 15C11.4584 14.0607 11.8315 13.1599 12.4957 12.4957C13.1599 11.8315 14.0607 11.4583 15 11.4583C15.9394 11.4583 16.8402 11.8315 17.5044 12.4957C18.1686 13.1599 18.5417 14.0607 18.5417 15ZM29.1667 15C29.1667 22.82 22.82 29.1667 15 29.1667C7.18004 29.1667 0.833374 22.82 0.833374 15C0.833374 7.18 7.18004 0.833328 15 0.833328C22.82 0.833328 29.1667 7.18 29.1667 15ZM26.3334 15H20.6667C20.6667 11.8692 18.1309 9.33333 15 9.33333C11.8692 9.33333 9.33337 11.8692 9.33337 15H3.66671C3.66671 21.2475 8.75254 26.3333 15 26.3333C21.2475 26.3333 26.3334 21.2475 26.3334 15Z"
     fill="white"
     id="path1"
     style="fill:#1d293d;fill-opacity:0.5" />
</svg>
