<svg width="400" height="400" viewBox="0 0 400 400" fill="none" xmlns="http://www.w3.org/2000/svg">
<path d="M206.151 0.0789457C134.325 -1.95918 64.2979 35.597 26.9762 97.5585C12.2553 122.133 3.0576 149.575 0.0126557 178.005H120.14C130.212 143.654 162.477 117.717 199.994 117.717C238.737 117.717 268.775 143.641 279.227 178.005H399.962C389.333 91.9317 324.765 20.1137 236.953 3.42148C226.709 1.46997 216.412 0.37011 206.151 0.0789457ZM199.07 163.381C180.189 163.282 161.617 175.456 161.617 200.199C161.617 249.685 235.852 248.869 238.383 200.199C237.143 175.851 217.951 163.48 199.07 163.381ZM0 222.455C4.06858 260.684 19.2683 296.909 43.7415 326.703C97.7699 391.914 188.682 416.833 268.75 388.335H268.763C341.391 362.499 390.827 296.785 400 222.455H279.227C268.775 256.769 238.8 282.743 199.994 282.743C162.68 282.743 130.048 256.857 120.039 222.455H0Z" fill="white"/>
</svg>
